<mxfile host="app.diagrams.net" modified="2024-04-12T06:55:17.996Z" agent="Mozilla/5.0 (Windows NT 10.0; Win64; x64) AppleWebKit/537.36 (KHTML, like Gecko) Chrome/123.0.0.0 Safari/537.36" version="24.0.2" etag="_UmUsLj5rSPx86-wvyeB" type="github">
  <diagram name="第 1 页" id="CEBmuaBlBP2Yq2r6BGAv">
    <mxGraphModel>
      <root>
        <mxCell id="0" />
        <mxCell id="1" parent="0" />
      </root>
    </mxGraphModel>
  </diagram>
</mxfile>
